<svg width="200" height="48" viewBox="0 0 200 48" fill="none" xmlns="http://www.w3.org/2000/svg">
<g clip-path="url(#clip0_9584_768)">
<mask id="mask0_9584_768" style="mask-type:luminance" maskUnits="userSpaceOnUse" x="0" y="0" width="200" height="48">
<path d="M200 0.5H0V47.5H200V0.5Z" fill="white"/>
</mask>
<g mask="url(#mask0_9584_768)">
<path d="M72.7234 34.242C71.2383 33.2617 69.3688 32.7399 67.551 32.2433C64.875 31.5047 62.5704 30.8679 62.5704 28.9323C62.5704 26.9967 64.1837 25.9144 66.7956 25.9144C69.0872 25.9144 70.7901 26.8439 71.4045 27.2387L71.6991 27.4294L73.5683 24.4751L73.325 24.2844C72.7361 23.8134 70.5339 22.2594 66.7956 22.2594C62.3912 22.2594 58.5247 25.3794 58.5247 28.9447C58.5247 33.4016 62.4937 34.5095 65.9888 35.5027C68.7672 36.2796 71.1742 36.9674 71.1742 39.1069C71.1742 40.8641 69.4072 41.9084 66.4626 41.9084C63.6845 41.9084 61.6358 40.4054 60.8807 39.7686L60.6118 39.5398L58.2688 42.3918L58.512 42.6214C59.2931 43.3218 62.1993 45.6138 67.0899 45.6138C71.6991 45.6138 75.3093 42.7484 75.3093 39.0937C75.3093 36.9927 74.4645 35.414 72.7234 34.2551V34.242Z" fill="#57BF90"/>
<path d="M179.026 15.3576H175.083V45.2061H179.026V15.3576Z" fill="#57BF90"/>
<path d="M166.504 26.0798C164.405 23.6476 161.46 22.2596 158.298 22.2596C152.165 22.2596 147.185 27.4933 147.185 33.924C147.185 40.3546 152.165 45.5883 158.298 45.5883C161.46 45.5883 164.405 44.2132 166.504 41.7681V45.1809H170.448V22.6418H166.504V26.0543V26.0798ZM158.849 41.9972C154.623 41.9972 151.192 38.3935 151.192 33.9621C151.192 29.5307 154.623 25.927 158.849 25.927C163.073 25.927 166.504 29.5307 166.504 33.9621C166.504 38.3935 163.073 41.9972 158.849 41.9972Z" fill="#57BF90"/>
<path d="M132.539 22.2594C126.176 22.2594 120.99 27.4933 120.99 33.9369C120.99 40.3802 126.176 45.6138 132.539 45.6138C135.355 45.6138 137.89 44.8116 140.041 43.2327C141.769 41.9591 142.743 40.5454 143.088 39.9851L143.268 39.6926L140.079 37.6802L139.888 37.9735C139.273 38.903 136.917 41.9465 132.526 41.9465C128.787 41.9465 125.612 39.1195 124.998 35.312H144.01L144.036 34.9937C144.061 34.6371 144.087 34.2807 144.087 33.9495C144.087 27.5188 138.902 22.2723 132.539 22.2723V22.2594ZM127.776 27.684C129.146 26.5506 130.785 25.9396 132.539 25.9396C135.931 25.9396 138.889 28.2571 139.862 31.6188L125.215 31.6444C125.663 30.0909 126.56 28.7027 127.789 27.684H127.776Z" fill="#57BF90"/>
<path d="M113.398 26.0672C111.299 23.635 108.354 22.2597 105.192 22.2597C99.0589 22.2597 94.0789 27.4933 94.0789 33.924C94.0789 40.3547 99.0589 45.5883 105.192 45.5883C108.354 45.5883 111.299 44.2132 113.398 41.781V45.1938H117.342V17.6241H113.398V26.0672ZM105.742 41.9975C101.517 41.9975 98.0859 38.3935 98.0859 33.9619C98.0859 29.5304 101.517 25.927 105.742 25.927C109.967 25.927 113.385 29.5307 113.398 33.9495V33.9876C113.385 38.4064 109.954 42.0101 105.742 42.0101V41.9975Z" fill="#57BF90"/>
<path d="M91.4412 41.0551C90.9161 41.3352 89.508 42.0101 87.7026 42.0101C85.3085 42.0101 84.6428 39.8707 84.6299 38.7502V26.1432H92.0172V22.6668H76.3977V26.1432H80.6739V38.7376C80.6739 41.0169 81.4164 42.8634 82.8247 44.0604C83.9899 45.0536 85.6028 45.6012 87.3826 45.6012C89.9304 45.6012 92.1196 44.391 92.9391 43.8689L93.208 43.7037L91.7482 40.8765L91.4282 41.0425L91.4412 41.0551Z" fill="#57BF90"/>
<path d="M196.873 34.242C195.388 33.2617 193.519 32.7399 191.701 32.2433C189.025 31.5047 186.721 30.8679 186.721 28.9323C186.721 26.9967 188.334 25.9144 190.946 25.9144C193.237 25.9144 194.94 26.8439 195.555 27.2387L195.849 27.4294L197.718 24.4751L197.475 24.2844C196.886 23.8134 194.684 22.2594 190.946 22.2594C186.541 22.2594 182.675 25.3794 182.675 28.9447C182.675 33.4016 186.644 34.5095 190.139 35.5027C192.917 36.2796 195.324 36.9674 195.324 39.1069C195.324 40.8641 193.557 41.9084 190.613 41.9084C187.834 41.9084 185.786 40.4054 185.031 39.7686L184.762 39.5398L182.419 42.3918L182.662 42.6214C183.443 43.3218 186.349 45.6138 191.24 45.6138C195.849 45.6138 199.459 42.7484 199.459 39.0937C199.459 36.9927 198.615 35.414 196.873 34.2551V34.242Z" fill="#57BF90"/>
<path d="M50.6641 37.9354C49.6271 39.8962 47.489 41.9588 44.5314 41.9588C41.5739 41.9588 38.9749 39.6035 38.9749 36.7128V22.6668H35.0701V36.8525C35.0701 41.6787 38.9493 45.6012 43.712 45.6012C46.183 45.6012 48.6795 44.4804 50.6768 42.4941V45.1932H54.5947V22.6668H50.6768V37.9354H50.6641Z" fill="#57BF90"/>
<path d="M23.829 26.0798V22.6671H19.8857V45.2064H23.829V32.1793C24.213 30.4221 25.2376 28.8176 26.6971 27.6587C28.1184 26.5383 29.8209 25.9144 31.4852 25.9144H32.3944V22.2596H32.0484C28.8863 22.2596 25.9414 23.6476 23.8417 26.0798H23.829Z" fill="#57BF90"/>
<path d="M15.8913 40.8894L15.5713 41.0674C15.0462 41.3476 13.6381 42.0225 11.8327 42.0225C9.43864 42.0225 8.77296 39.8833 8.75999 38.7626V26.1687H16.1473V22.6923H8.75999V15.3321H5.09837V22.6797H0.540527V26.1687H4.81674V38.7626C4.81674 41.0419 5.55945 42.8884 6.96782 44.0854C8.13269 45.0788 9.74593 45.6262 11.5257 45.6262C14.0732 45.6262 16.2627 44.4165 17.0819 43.9073L17.3508 43.7416L15.8913 40.9146V40.8894Z" fill="#57BF90"/>
<path fill-rule="evenodd" clip-rule="evenodd" d="M107.985 8.83285C105.282 6.5959 101.362 4.85502 95.8753 5.87156L95.8753 5.87156C90.2632 6.91133 87.3117 10.2846 85.7116 13.4676C84.903 15.0759 84.4474 16.6283 84.1953 17.7811C84.0698 18.3551 83.9962 18.8231 83.9546 19.1403C83.9338 19.2987 83.921 19.4188 83.9137 19.4952C83.91 19.5333 83.9078 19.5604 83.9065 19.5758L83.9055 19.5887L83.9056 19.5875C83.9057 19.5868 83.9057 19.586 82.0986 19.4719C80.2914 19.3578 80.2914 19.3569 80.2915 19.356L80.2916 19.3539L80.292 19.3487L80.293 19.3349C80.2937 19.3241 80.2948 19.3101 80.2961 19.293C80.2988 19.259 80.3028 19.2126 80.3083 19.1547C80.3194 19.039 80.3368 18.8769 80.3634 18.6744C80.4166 18.2697 80.5066 17.7013 80.6563 17.0169C80.9545 15.6531 81.4955 13.8012 82.4717 11.8593C84.4411 7.94185 88.212 3.63048 95.2115 2.33367C101.921 1.09046 106.909 3.25797 110.303 6.06774C113.634 8.82553 115.429 12.1877 115.984 13.5279L112.635 14.898C112.24 13.9446 110.75 11.1218 107.985 8.83285ZM83.9054 19.5903C83.9054 19.591 83.9054 19.5908 83.9055 19.59L83.9054 19.5903Z" fill="#57BF90"/>
</g>
</g>
<defs>
<clipPath id="clip0_9584_768">
<rect width="200" height="47" fill="white" transform="translate(0 0.5)"/>
</clipPath>
</defs>
</svg>
