<svg width="24" height="24" viewBox="0 0 24 24" fill="none" xmlns="http://www.w3.org/2000/svg">
<path d="M4.98298 7.19698C6.19138 7.19698 7.17098 6.21738 7.17098 5.00898C7.17098 3.80058 6.19138 2.82098 4.98298 2.82098C3.77458 2.82098 2.79498 3.80058 2.79498 5.00898C2.79498 6.21738 3.77458 7.19698 4.98298 7.19698Z" fill="#57BF90"/>
<path d="M9.23697 8.85498V20.994H13.006V14.991C13.006 13.407 13.304 11.873 15.268 11.873C17.205 11.873 17.229 13.684 17.229 15.091V20.995H21V14.338C21 11.068 20.296 8.55499 16.474 8.55499C14.639 8.55499 13.409 9.56199 12.906 10.515H12.855V8.85498H9.23697ZM3.09497 8.85498H6.86997V20.994H3.09497V8.85498Z" fill="#57BF90"/>
</svg>
